<?xml version="1.0" ?><svg id="Layer_1" style="enable-background:new 0 0 256 256;" version="1.1" viewBox="0 0 256 256" xml:space="preserve" xmlns="http://www.w3.org/2000/svg" xmlns:xlink="http://www.w3.org/1999/xlink"><g><path d="M29.4,190.9c2.8,0,5-2.2,5-5v-52.3l30.2-16.2v42.9c0,2.8,2.2,5,5,5c2.8,0,5-2.2,5-5v-59.6l-50.1,26.9v58.3   C24.4,188.6,26.6,190.9,29.4,190.9z"/><path d="M89.6,153c2.8,0,5-2.2,5-5V59.6l30.2-16.2v143.8c0,2.8,2.2,5,5,5c2.8,0,5-2.2,5-5V26.7L84.6,53.6V148   C84.6,150.7,86.8,153,89.6,153z"/><path d="M149.8,185.7c2.8,0,5-2.2,5-5V85.4L185,69.2v86.3c0,2.8,2.2,5,5,5c2.8,0,5-2.2,5-5v-103l-50.1,26.9v101.3   C144.8,183.5,147.1,185.7,149.8,185.7z"/><path d="M250,146.2c-0.9-1.5-2.5-2.5-4.3-2.5h-34.5c-1.8,0-3.4,1-4.3,2.5c-0.9,1.5-0.9,3.4,0,5l6.2,10.7l-27.5,16.7   c-4.2,2.6-8.3,5.1-12.5,7.7c-3,1.9-6,3.7-8.9,5.6c-7.8,5-14.7,9.5-21.1,13.9c-3.3,2.2-6.5,4.5-9.8,6.7l-44.8-43.8L7.7,220.1   c-2.3,1.5-3,4.6-1.5,6.9c1,1.5,2.6,2.3,4.2,2.3c0.9,0,1.8-0.3,2.7-0.8l74-47.1l45.2,44.1l6.1-4.4c3.4-2.4,6.8-4.8,10.3-7.1   c6.3-4.3,13.1-8.7,20.9-13.7c2.9-1.9,5.9-3.7,8.8-5.6c4.1-2.6,8.3-5.1,12.4-7.7l25.3-15.5l2-1.2l6.1,10.6c0.9,1.5,2.5,2.5,4.3,2.5   s3.4-1,4.3-2.5l17.3-29.9C250.9,149.7,250.9,147.8,250,146.2z M228.4,168.6l-8.6-14.9H237L228.4,168.6z"/></g></svg>